<mxfile host="app.diagrams.net" modified="2024-06-20T16:38:17.312Z" agent="Mozilla/5.0 (Macintosh; Intel Mac OS X 10.15; rv:121.0) Gecko/20100101 Firefox/121.0" version="24.5.5" etag="BaIxjgAclAHtJ7PUHK0h" type="github">
  <diagram name="Page-1" id="Eja_x30LjsoV7pn8fB8f">
    <mxGraphModel>
      <root>
        <mxCell id="0" />
        <mxCell id="1" parent="0" />
      </root>
    </mxGraphModel>
  </diagram>
</mxfile>
